<?xml version="1.0" standalone="no"?>
<!DOCTYPE svg PUBLIC "-//W3C//DTD SVG 20010904//EN"
 "http://www.w3.org/TR/2001/REC-SVG-20010904/DTD/svg10.dtd">
<svg version="1.0" xmlns="http://www.w3.org/2000/svg"
 width="4583.000000pt" height="3273.000000pt" viewBox="0 0 4583.000000 3273.000000"
 preserveAspectRatio="xMidYMid meet">

<g transform="translate(0.000000,3273.000000) scale(0.100000,-0.100000)"
fill="#000000" stroke="none">
<path d="M24852 12565 c0 -16 2 -22 5 -12 2 9 2 23 0 30 -3 6 -5 -1 -5 -18z"/>
<path d="M22729 10467 c-23 -40 -44 -76 -47 -82 -6 -10 33 18 121 87 l49 38
-29 10 c-15 6 -34 13 -40 15 -7 2 -30 -27 -54 -68z"/>
<path d="M29223 10403 c-13 -2 -23 -8 -23 -12 0 -11 28 -47 32 -41 2 3 14 17
27 33 26 29 23 31 -36 20z"/>
<path d="M8853 8956 c-50 -39 -90 -72 -88 -75 3 -2 43 15 89 37 66 32 87 46
92 66 3 14 4 29 2 34 -1 5 -44 -23 -95 -62z"/>
</g>
</svg>
